<?xml version="1.0" encoding="UTF-8"?>
<!-- Created with Inkscape (http://www.inkscape.org/) -->
<svg width="1080" height="1920" version="1.1" viewBox="0 0 285.75 508" xmlns="http://www.w3.org/2000/svg" xmlns:cc="http://creativecommons.org/ns#" xmlns:dc="http://purl.org/dc/elements/1.1/" xmlns:rdf="http://www.w3.org/1999/02/22-rdf-syntax-ns#">
 <metadata>
  <rdf:RDF>
   <cc:Work rdf:about="">
    <dc:format>image/svg+xml</dc:format>
    <dc:type rdf:resource="http://purl.org/dc/dcmitype/StillImage"/>
    <dc:title/>
   </cc:Work>
  </rdf:RDF>
 </metadata>
 <g transform="translate(0 211)">
  <g transform="matrix(1.4735 0 0 1.3037 -22.827 -90.677)">
   <path d="m130.23 249.38c22.018-30.224 40.294 9.5765 54.294-9.4223 12.102-20.543 15.652-36.275 26.151-43.454l-0.53453 102.01h-150.27c37.096-67.819 48.24-21.642 70.361-49.129z" fill="#59f"/>
   <path d="m130.22 260.92c22.045-23.156 40.344 7.337 54.361-7.2188 12.117-15.739 15.671-27.792 26.183-33.292l-0.5352 78.151h-150.46c37.142-51.959 48.3-16.581 70.448-37.64z" fill="#2a7fff"/>
   <path d="m130.23 276.41c22.018-13.594 40.294 4.3074 54.294-4.238 12.102-9.2399 15.652-16.316 26.151-19.545l-0.53454 45.881h-150.27c37.096-30.504 48.24-9.7343 70.361-22.097z" fill="#06f"/>
  </g>
  <g transform="matrix(1.4467 0 0 1.3959 .54262 -210.98)">
   <path d="m-0.49194-0.50099h160c-16.761 57.234-33.577 18.785-64.966 45.55-30.87 23.888-48.771-17.425-72.521 7.8481-17.111 18.303-8.527 32.865-22.509 38.072z" fill="#80b3ff"/>
   <path d="m-0.49194-0.50099h160.2c-16.782 39.974-33.62 13.12-65.049 31.814-30.909 16.685-48.833-12.17-72.614 5.4814-17.132 12.784-8.5379 22.954-22.537 26.591z" fill="#59f"/>
   <path d="m-0.39003-0.42958h160.44c-16.807 23.739-33.67 7.7914-65.146 18.893-30.955 9.9083-48.906-7.2274-72.722 3.2552-17.158 7.5918-8.5506 13.632-22.571 15.791z" fill="#2a7fff"/>
  </g>
 </g>
</svg>
