<?xml version="1.0" encoding="UTF-8" standalone="no"?>
<!-- Created with Inkscape (http://www.inkscape.org/) -->

<svg
   xmlns:dc="http://purl.org/dc/elements/1.1/"
   xmlns:cc="http://creativecommons.org/ns#"
   xmlns:rdf="http://www.w3.org/1999/02/22-rdf-syntax-ns#"
   xmlns:svg="http://www.w3.org/2000/svg"
   xmlns="http://www.w3.org/2000/svg"
   xmlns:sodipodi="http://sodipodi.sourceforge.net/DTD/sodipodi-0.dtd"
   xmlns:inkscape="http://www.inkscape.org/namespaces/inkscape"
   width="1080"
   height="1920"
   version="1.1"
   viewBox="0 0 285.75 508"
   id="svg30"
   sodipodi:docname="android.svg"
   inkscape:version="0.92.4 (fd57863, 2020-04-02)">
  <defs
     id="defs34" />
  <sodipodi:namedview
     pagecolor="#ffffff"
     bordercolor="#666666"
     borderopacity="1"
     objecttolerance="10"
     gridtolerance="10"
     guidetolerance="10"
     inkscape:pageopacity="0"
     inkscape:pageshadow="2"
     inkscape:window-width="1366"
     inkscape:window-height="704"
     id="namedview32"
     showgrid="false"
     inkscape:zoom="0.38743559"
     inkscape:cx="914.71361"
     inkscape:cy="1610.6179"
     inkscape:window-x="0"
     inkscape:window-y="27"
     inkscape:window-maximized="1"
     inkscape:current-layer="g28" />
  <metadata
     id="metadata10">
    <rdf:RDF>
      <cc:Work
         rdf:about="">
        <dc:format>image/svg+xml</dc:format>
        <dc:type
           rdf:resource="http://purl.org/dc/dcmitype/StillImage" />
        <dc:title />
      </cc:Work>
    </rdf:RDF>
  </metadata>
  <g
     transform="translate(0,211)"
     id="g28">
    <g
       transform="matrix(1.4735,0,0,1.3037,-22.827,-90.677)"
       id="g18">
      <path
         d="m 130.23,249.38 c 22.018,-30.224 40.294,9.5765 54.294,-9.4223 12.102,-20.543 15.652,-36.275 26.151,-43.454 l -0.53453,102.01 h -150.27 c 37.096,-67.819 48.24,-21.642 70.361,-49.129 z"
         id="path12"
         inkscape:connector-curvature="0"
         style="fill:#aaeeff" />
      <path
         d="m 130.22,275.30062 c 22.045,-14.30914 40.344,4.53386 54.361,-4.46083 12.117,-9.72584 15.671,-17.17393 26.183,-20.57263 l -0.5352,48.29304 h -150.46 c 37.142,-32.10782 48.3,-10.24615 70.448,-23.25946 z"
         id="path14"
         inkscape:connector-curvature="0"
         style="fill:#80e5ff;stroke-width:0.7860949" />
    </g>
    <g
       transform="matrix(1.4467,0,0,1.3959,0.54262,-210.98)"
       id="g26">
      <path
         d="m -0.49194,-0.50099 h 160 c -16.761,57.234 -33.577,18.785 -64.966,45.55 -30.87,23.888 -48.771,-17.425 -72.521,7.8481 -17.111,18.303 -8.527,32.865 -22.509,38.072 z"
         id="path20"
         inkscape:connector-curvature="0"
         style="fill:#aaeeff" />
      <path
         d="m -0.49194,-0.50099 h 160.2 c -16.782,26.658205 -33.62,8.7495783 -65.049,21.216394 -30.909,11.127036 -48.833,-8.116034 -72.614,3.655483 -17.132,8.525504 -8.5379,15.307761 -22.537,17.733234 z"
         id="path22"
         inkscape:connector-curvature="0"
         style="fill:#80e5ff;stroke-width:0.81663245" />
    </g>
  </g>
</svg>
